<svg viewBox="0 0 120 120" xmlns="http://www.w3.org/2000/svg" fill-rule="evenodd" clip-rule="evenodd" stroke-linecap="round" stroke-linejoin="round" stroke-miterlimit="1.5">
  <path d="M89.413 47.937c-1.57-17.236-19.377-21.8-19.377-21.8l-43.234-.148.339 87.074-19.384.247S7.464 7.177 7.686 6.937c.222-.24 61.962-.247 61.962-.247s31.194 3.116 38.54 35.052l.633 3.182-9.018 1.448-10.381 1.666c19.386-3.136.077-.029 19.4-3.114l.287 10.984-37.973 38.04 41.262.353-17.94 18.694-56.223-.02.225-33.644 18.75-18.39.36 17.645 31.852-30.548-.01-.1zm-51.337 9.948l.005 16.27 19.697-19.04-.005-16.269-19.697 19.04z" fill="#fff"/>
</svg>
