<svg viewBox="0 0 200 200" xmlns="http://www.w3.org/2000/svg" fill-rule="evenodd" clip-rule="evenodd" stroke-linejoin="round" stroke-miterlimit="1.414">
  <path d="M110.069 49.403C108.5 32.167 90.692 27.602 90.692 27.602l-43.234-.147.339 87.074-19.384.247S28.12 8.643 28.342 8.403c.222-.24 61.962-.247 61.962-.247s31.194 3.116 38.54 35.052l.634 3.182-9.019 1.448-10.381 1.666c19.386-3.136.077-.029 19.4-3.114l.287 10.984-37.973 38.039 41.262.354-17.939 18.694-56.224-.02.225-33.644 18.75-18.391.361 17.646 31.851-30.548-.009-.101zm-51.337 9.948l.005 16.269 19.697-19.039-.005-16.269-19.697 19.039z" fill="#fff"/>
</svg>
