<svg viewBox="0 0 580 200" xmlns="http://www.w3.org/2000/svg" fill-rule="evenodd" clip-rule="evenodd" stroke-linecap="round" stroke-linejoin="round" stroke-miterlimit="1.5">
  <path d="M150.342 80.622c-2.461-27.031-30.389-34.19-30.389-34.19l-67.802-.23.531 136.555-30.4.387s-.459-166.445-.11-166.821c.348-.377 97.173-.388 97.173-.388s48.92 4.887 60.44 54.971l.995 4.99-14.144 2.271-16.28 2.613c30.402-4.918.12-.046 30.424-4.884l.45 17.226-59.552 59.656 64.71.555-28.133 29.317-88.174-.031.352-52.763 29.406-28.842.566 27.673 49.95-47.907-.013-.158zm-80.51 15.6l.007 25.515 30.89-29.858-.008-25.515-30.89 29.859z" fill="#fff"/>
  <g font-family="'LucidaGrande','Lucida Grande',sans-serif" font-weight="500" font-size="74.092" fill="#fff">
    <text y="57.125" transform="translate(201.431 11.988) scale(1.29568)">
      Remote
    </text>
    <text y="131.217" transform="translate(201.431 11.988) scale(1.29568)">
      Meetup
    </text>
  </g>
</svg>
