<svg viewBox="0 0 120 120" xmlns="http://www.w3.org/2000/svg" fill-rule="evenodd" clip-rule="evenodd" stroke-linecap="round" stroke-linejoin="round" stroke-miterlimit="1.5">
  <path d="M93.754 50.218c-1.569-17.236-19.377-21.801-19.377-21.801l-43.234-.147.339 87.074-19.384.247S11.805 9.458 12.027 9.218c.222-.24 61.962-.247 61.962-.247s31.194 3.116 38.54 35.052l.634 3.182-9.019 1.448-10.381 1.666c19.386-3.136.077-.029 19.4-3.114l.287 10.984-37.973 38.039 41.262.354L98.8 115.276l-56.224-.02.225-33.644 18.75-18.391.361 17.646 31.851-30.548-.009-.101zm-51.337 9.948l.005 16.269 19.697-19.039-.005-16.269-19.697 19.039z" fill="url(#_Linear1)" transform="translate(-4.341 -2.28)"/>
  <defs>
    <linearGradient id="_Linear1" x2="1" gradientUnits="userSpaceOnUse" gradientTransform="matrix(104.795 0 0 106.62 11.944 62.28)">
      <stop offset="0" stop-color="#0579c1"/>
      <stop offset="1" stop-color="#27a8e0"/>
    </linearGradient>
  </defs>
</svg>
